<?xml version="1.0" encoding="UTF-8"?>
<!DOCTYPE svg PUBLIC "-//W3C//DTD SVG 1.1//EN" "http://www.w3.org/Graphics/SVG/1.1/DTD/svg11.dtd">
<!-- Creator: CorelDRAW -->
<svg xmlns="http://www.w3.org/2000/svg" xml:space="preserve" width="508mm" height="285.75mm" version="1.1" style="shape-rendering:geometricPrecision; text-rendering:geometricPrecision; image-rendering:optimizeQuality; fill-rule:evenodd; clip-rule:evenodd"
viewBox="0 0 50800 28575"
 xmlns:xlink="http://www.w3.org/1999/xlink"
 xmlns:xodm="http://www.corel.com/coreldraw/odm/2003">
 <defs>
  <style type="text/css">
   <![CDATA[
    .fil1 {fill:#000180}
    .fil0 {fill:#45C93E}
   ]]>
  </style>
 </defs>
 <g id="Capa_x0020_1">
  <metadata id="CorelCorpID_0Corel-Layer"/>
  <g id="_2393235906416">
   <path class="fil0" d="M25967.43 22984.39c-792.39,23.32 -763.14,239.08 -2045.18,121.25 -652.17,-59.9 -1232.01,-186.72 -1822.2,-378.63 -991.47,-322.52 -2125.24,-945.08 -2837.88,-1611.32 -763.14,-713.32 -1348.44,-1340.81 -1908.96,-2532.19 -424.77,-902.95 -816.96,-2522.94 -728.59,-3714.12 286.73,34.65 737,798.41 2309.05,1148.21 1945.12,432.82 4024.18,-390.06 6056.99,823.14 660.74,394.38 1518.23,1342.78 1547.63,1994.74 -220.28,-51.38 -429.08,-238.1 -743.81,-337.02 -1408.55,-442.69 -3366.45,1207.54 -5489.1,-139.34 -185.42,-117.67 -501.86,-393.07 -637.25,-457.44 169.42,381.33 936.24,1003.57 1356.28,1228.84 1454.06,779.92 2938.99,500.1 4458.09,816.44 563.17,117.31 1158.35,343.93 1540.41,752.13l205.06 175.6c395.62,-179.92 1097.45,-1996.19 52.11,-3682.07 -2056.2,-3316.16 -6444.1,-3147.47 -8715.95,-4657.79 -330.74,-219.87 -409.34,-257.69 -565.36,-665.47 -1013.39,-2649.34 674.2,-4969.04 2823.39,-6272.29 2301.73,-1395.66 4458.87,-1937.69 7656.84,-2061.85 -1549.76,-476.57 -3713.87,-538.45 -5318.23,-206.15 -1656,343.04 -3033.58,986.58 -4199.1,1817.88 -1684.11,1201.05 -3207.32,3075.05 -3964.43,4999.18 -264.34,671.7 -596.83,1634.55 -678.09,2346.51 -229.58,2012.4 -136.12,3464.12 490.23,5215.15 981.18,2742.86 3140.92,5166.93 6134.66,5873.7 1607.01,379.36 3277.72,325.85 4788.82,-399.52 212.18,-101.83 184.38,-110.45 234.57,-197.57z"/>
   <path class="fil1" d="M24787.73 5583.56c109.78,42.91 697.11,-84.79 898.84,-99.03 351.21,-24.83 750.88,-23.06 1102.86,-4.88 1716.32,88.74 3526.94,954.69 4698.89,1957.38 1631.64,1395.93 2884.9,3965.94 2650.33,6253.07 -234.15,-30.55 -377.18,-210.78 -527.79,-326.27 -139.7,-107.18 -342.47,-226.83 -543.06,-336.03 -398.85,-217.11 -804.65,-349.33 -1259.08,-458.02 -1703.39,-407.57 -4279.89,335.62 -6060.63,-840.44 -652.79,-431.11 -1419.98,-1254.51 -1507.89,-1971.1 151.65,21.61 459.89,253.53 726.41,330.37 308.55,88.94 684.53,91.02 1028.36,52.06 608.83,-68.95 1132.88,-315.62 1785.88,-397.6 2222.5,-279.09 2867.96,739.4 3351.65,941.86 -174.72,-399.26 -910.33,-968.3 -1403.78,-1224.64 -623.59,-323.88 -1310.93,-523.37 -2104.66,-581.93 -983.63,-72.57 -2973.12,-115.49 -3752.31,-861.74 -113.41,-108.63 -187.81,-287.72 -338.68,-349.96 -327.72,286.78 -602.45,1225.99 -607.23,1786.36 -6.28,739.65 209.53,1316.43 537.35,1873.94 581.51,989.08 1476.66,1776.22 2546.58,2334.3 1177.52,614.14 2241.36,831.41 3563.46,1284.8 923.52,316.71 2885.68,892.71 3189.13,1688.01 1196.53,3135.41 -1125.56,5228.65 -2766.91,6320.39 -3411.96,2269.41 -7511.21,1996.24 -7678.5,2071.26 213.95,212.13 2090.49,409.55 2534.43,422.38 2636.98,76.48 4909.87,-525.4 6966.84,-2033.7 297.28,-217.99 540.26,-393.49 836.71,-659.13 2048.3,-1835.13 3258.7,-3834.49 3804.46,-6705.88 322.01,-1694.19 38.45,-3767.69 -507.01,-5205.9 -587.17,-1548.41 -1335.24,-2708.57 -2319.85,-3703.58 -1643.38,-1660.78 -4126.16,-2593.54 -6592.11,-2316.37 -749.01,84.16 -1806.05,357.07 -2252.69,760.02z"/>
  </g>
 </g>
</svg>
