<?xml version="1.0" encoding="UTF-8"?>
<!DOCTYPE svg PUBLIC "-//W3C//DTD SVG 1.1//EN" "http://www.w3.org/Graphics/SVG/1.1/DTD/svg11.dtd">
<!-- Creator: CorelDRAW -->
<svg xmlns="http://www.w3.org/2000/svg" xml:space="preserve" width="508mm" height="285.75mm" version="1.1" style="shape-rendering:geometricPrecision; text-rendering:geometricPrecision; image-rendering:optimizeQuality; fill-rule:evenodd; clip-rule:evenodd"
viewBox="0 0 50800 28575"
 xmlns:xlink="http://www.w3.org/1999/xlink"
 xmlns:xodm="http://www.corel.com/coreldraw/odm/2003">
 <defs>
  <style type="text/css">
   <![CDATA[
    .fil1 {fill:#000057}
    .fil0 {fill:#8DB63E}
    .fil2 {fill:#000057;fill-rule:nonzero}
   ]]>
  </style>
 </defs>
 <g id="Capa_x0020_1">
  <metadata id="CorelCorpID_0Corel-Layer"/>
  <g id="_2393242242192">
   <path class="fil0" d="M27777.73 11797.32c1268.22,3.75 1858.93,54.23 3045.07,-693.3 1221.68,-769.89 1851.98,-1919.72 2000.73,-3409.07 65.48,-655.7 23.74,-1929.87 -339.19,-2374.32 -149.85,45.32 -276.81,192.66 -413.36,288.97 -120.16,84.78 -284.45,203.09 -431.53,285.02 -1405.01,782.56 -3752.9,762.84 -4520.48,2716.37 -187.76,477.87 -340.07,2112.27 230.88,2335.89 385.65,-549.06 521.33,-1122.15 1116.91,-1650.81 861.18,-764.45 1052.33,-805.2 1973.43,-1249.61 100.49,-48.47 178.34,-90.05 281.92,-134.47 -703.39,371.41 -1550.96,1156.06 -2028.1,1785.53 -450.85,594.81 -825.39,1328.61 -916.28,2099.8z"/>
   <path class="fil0" d="M26160.74 11662.87c-181.68,-974.38 -435.54,-1326.79 -921.1,-2149.61 739.92,844.97 820.29,1093.15 1354.43,1945.12 54.17,-41.76 15.5,-4.47 61.7,-56.37 82.46,-92.53 86.2,-120.21 109.22,-213.92 312.56,-1273.56 -593.91,-2756.86 -1863.87,-3196.01 -202.88,-70.17 -728.71,-247.34 -951.82,-209.3 -153.68,26.18 -53.69,-60.54 -136.07,96.43 -14.19,27.07 -39.61,133.72 -47.52,165.59 -306.6,1234.69 214.48,2534.47 1263.5,3201.97 202.69,128.96 762.49,451 1131.53,416.1z"/>
   <path class="fil1" d="M23610.46 19084.55l-294.17 703.13 5500.42 -0.16 3061.4 -0.09c312.77,-2.03 426.1,-7.9 595.76,160.52 134.7,133.71 178.66,376.31 129.9,576.7 -121.93,501.18 -670.9,541.84 -953.06,449.67 665.04,701.55 346.69,2261.38 -1111.93,2272.81 -1342.69,10.52 -1759.48,-1572.4 -1081.87,-2273.46l-3850.66 15.67c5.51,6.88 12.39,14.87 21.18,23.89 83.02,85.29 137.72,223.03 185.49,348.38 599.1,1571.57 -1512.26,2451.64 -2373.55,1497.33 -383.07,-424.45 -567.89,-852.73 -349.34,-1476.21 67.04,-191.16 175.93,-278.86 235.09,-428.31 -1791.69,76.09 -1297.77,-1433.43 -1055.97,-1873.42 17.87,2.33 36.12,3.55 54.66,3.55l1286.65 0zm-3201.3 -6816.04l-367.03 -931.14 -2783.23 0c-324.76,-185.49 -321.72,-751.04 -103.28,-988.75 121.26,-131.95 228.65,-179.83 473.73,-180.67l2829.83 2.01c195.01,15.92 322.69,103.96 435.26,212.97 190.74,184.74 593.18,1296.99 783,1845.36l-1089.23 0c-64.76,0 -125.09,13.74 -179.05,40.22z"/>
   <path class="fil2" d="M22323.81 18679.98l1546.13 0 932.21 -2984.97 932.23 2984.97 1546.12 0 1735.61 -6047.11 -1826.55 0 -750.32 2882.03 -856.44 -2899.2 -1530.97 0 -856.42 2899.2 -750.33 -2882.03 -1856.87 0 1735.6 6047.11zm9125.16 68.62c1424.87,0 2341.94,-771.98 2341.94,-2032.86l0 -17.16c0,-1200.85 -909.48,-1664.03 -2266.13,-1938.51 -568.44,-111.49 -704.86,-223.01 -704.86,-385.98l0 -17.16c0,-145.81 121.28,-248.74 386.53,-248.74 492.64,0 1083.81,180.12 1591.62,591.84l863.99 -1355.23c-613.9,-548.96 -1364.22,-823.45 -2394.96,-823.45 -1455.2,0 -2250.99,883.49 -2250.99,2024.3l0 17.14c0,1269.47 1045.9,1655.44 2235.81,1929.93 568.45,128.65 735.18,223.02 735.18,394.55l0 17.17c0,162.97 -128.85,257.32 -454.75,257.32 -629.05,0 -1280.86,-197.28 -1856.87,-703.35l-947.37 1278.04c674.53,677.63 1637.06,1012.15 2720.86,1012.15z"/>
   <path class="fil2" d="M22329.3 18672.69l1535.31 0 937.52 -3002.05 937.58 3002.05 1535.33 0 1731.42 -6032.54 -1811.28 0 -755.52 2901.91 -862.29 -2919.08 -1520.11 0 -862.29 2919.08 -755.51 -2901.91 -1841.6 0 1731.44 6032.54zm1540.64 14.57l-1551.61 0c-576.45,-2021.22 -1156.88,-4042.32 -1739.8,-6061.68l1872.15 0 745.17 2862.18 850.53 -2879.34 1541.85 0 850.57 2879.34 745.14 -2862.18 1841.82 0c-579.11,2020.66 -1156.55,4042.24 -1739.79,6061.68l-1556.94 0 -926.88 -2967.88 -926.88 2967.88 -5.33 0zm7579.03 54.05c714.08,0 1300.13,-194.22 1706.4,-546.88 402.09,-349.01 628.26,-853.49 628.26,-1478.69l0 -17.16c0,-597.84 -226.32,-1012.03 -621.41,-1310.83 -395.98,-299.47 -961.53,-483.54 -1638.83,-620.57 -285,-55.87 -461.98,-111.91 -567.89,-174.55 -107.87,-63.77 -142.86,-134.47 -142.86,-218.54l0 -17.16c0,-78.24 33.85,-144.6 104.76,-190.25 64.63,-41.57 160.18,-65.77 289.05,-65.77 259.04,0 545.3,49.68 832.39,156.41 258.16,96 517.07,238.23 757.47,431.97l856.31 -1343.17c-305.01,-271.77 -643.85,-475.81 -1034.11,-612.04 -392.34,-136.96 -836.83,-205.44 -1351.41,-205.44 -700.85,0 -1248.19,205.36 -1626.69,545.73 -405.08,364.28 -617.02,883.49 -617.02,1471.28l0 17.14c0,631.96 260.3,1044.01 668.61,1332.14 409.2,288.78 967.38,453.64 1561.55,590.69 284.92,64.48 469.29,120.46 582.61,181.9 115.48,62.63 158.22,131.14 158.22,219.75l0 17.17c0,84.12 -33.29,150.56 -108.7,196 -74.05,44.63 -189,68.6 -353.33,68.6 -330.07,0 -666.44,-54.21 -994.9,-178.6 -296.91,-112.47 -587.35,-282.34 -860.82,-521.39l-938.96 1266.69c330.87,331.01 730.92,579.69 1180.37,746.88 464.6,172.83 982.18,258.69 1530.93,258.69zm1715.92 -535.91c-408.93,354.96 -998.27,550.48 -1715.92,550.48 -550.38,0 -1069.66,-86.19 -1535.97,-259.65 -453.42,-168.67 -856.81,-419.91 -1190.03,-754.66l-4.41 -4.41c318.63,-429.75 637.48,-859.38 955.77,-1289.4l5.93 5.18c273.81,240.55 564.83,411.21 862.31,523.89 326.7,123.72 661.34,177.65 989.78,177.65 161.56,0 274.04,-23.23 345.84,-66.5 70.49,-42.48 101.63,-104.69 101.63,-183.54l0 -17.17c0,-82.89 -40.68,-147.37 -150.58,-206.95 -112.17,-60.78 -295.42,-116.37 -578.9,-180.51 -595.74,-137.42 -1155.55,-302.83 -1566.72,-592.99 -412.1,-290.81 -674.79,-706.56 -674.79,-1344.03l0 -17.14c0,-591.94 213.6,-1114.95 621.87,-1482.1 381.1,-342.72 931.75,-549.48 1636.4,-549.48 516.17,0 962.24,68.77 1356.19,206.28 394.08,137.55 735.96,343.93 1043.6,619.04l4.59 4.11c-290.06,456.05 -580.69,911.86 -871.69,1367.31l-6.31 -5.14c-240.94,-195.33 -500.7,-338.44 -759.68,-434.74 -285.34,-106.08 -569.86,-155.45 -827.35,-155.45 -125.98,0 -218.88,23.33 -281.21,63.44 -66.37,42.72 -98.04,104.78 -98.04,178.01l0 17.16c0,78.89 33.24,145.48 135.68,206.04 104.4,61.74 279.91,117.21 563.3,172.79 679.36,137.47 1246.91,322.29 1644.79,623.21 398.79,301.59 627.22,719.46 627.22,1322.45l0 17.16c0,629.61 -227.98,1137.86 -633.3,1489.66z"/>
  </g>
 </g>
</svg>
