<svg xmlns="http://www.w3.org/2000/svg" xmlns:xlink="http://www.w3.org/1999/xlink" width="500" zoomAndPan="magnify" viewBox="0 0 375 374.999991" height="500" preserveAspectRatio="xMidYMid meet" version="1.0"><rect x="-37.5" width="450" fill="#ffffff" y="-37.499999" height="449.999989" fill-opacity="1"/><rect x="-37.5" width="450" fill="#ffffff" y="-37.499999" height="449.999989" fill-opacity="1"/><path fill="#4d4d4d" d="M 91.261719 299.671875 L 74.359375 276.472656 L 68.050781 283.011719 L 68.050781 299.671875 L 56.058594 299.671875 L 56.058594 245.171875 L 68.050781 245.171875 L 68.050781 268.996094 L 90.171875 245.171875 L 104.652344 245.171875 L 82.457031 268.296875 L 105.667969 299.671875 Z M 91.261719 299.671875 " fill-opacity="1" fill-rule="nonzero"/><path fill="#4d4d4d" d="M 112.914062 299.671875 L 112.914062 245.171875 L 154.03125 245.171875 L 154.03125 255.839844 L 124.828125 255.839844 L 124.828125 266.894531 L 150.527344 266.894531 L 150.527344 277.5625 L 124.828125 277.5625 L 124.828125 289.003906 L 154.421875 289.003906 L 154.421875 299.671875 Z M 112.914062 299.671875 " fill-opacity="1" fill-rule="nonzero"/><path fill="#4d4d4d" d="M 163.003906 299.671875 L 163.003906 245.171875 L 174.996094 245.171875 L 174.996094 288.773438 L 202.175781 288.773438 L 202.175781 299.671875 Z M 163.003906 299.671875 " fill-opacity="1" fill-rule="nonzero"/><path fill="#4d4d4d" d="M 307.164062 283.089844 C 307.164062 279.429688 304.4375 277.171875 298.285156 277.171875 L 284.421875 277.171875 L 284.421875 289.160156 L 298.675781 289.160156 C 303.96875 289.160156 307.164062 287.292969 307.164062 283.242188 Z M 304.125 261.289062 C 304.125 257.707031 301.320312 255.683594 296.261719 255.683594 L 284.421875 255.683594 L 284.421875 267.207031 L 295.480469 267.207031 C 300.777344 267.207031 304.125 265.492188 304.125 261.445312 Z M 298.675781 299.671875 L 272.742188 299.671875 L 272.742188 245.175781 L 298.050781 245.175781 C 309.1875 245.175781 316.039062 250.703125 316.039062 259.265625 L 316.039062 259.421875 C 316.039062 265.570312 312.769531 268.996094 308.875 271.175781 C 315.183594 273.589844 319.078125 277.25 319.078125 284.570312 L 319.078125 284.722656 C 319.078125 294.6875 310.976562 299.671875 298.675781 299.671875 Z M 298.675781 299.671875 " fill-opacity="1" fill-rule="nonzero"/><path fill="#4d4d4d" d="M 235.277344 259.382812 L 228.035156 277.054688 L 242.519531 277.054688 Z M 251.789062 299.867188 L 246.804688 287.644531 L 223.75 287.644531 L 218.765625 299.867188 L 206.542969 299.867188 L 229.902344 244.980469 L 240.960938 244.980469 L 264.324219 299.867188 Z M 251.789062 299.867188 " fill-opacity="1" fill-rule="nonzero"/><path fill="#4d4d4d" d="M 66.613281 326.5 L 64.871094 326.5 L 60.136719 320.535156 L 57.515625 323.191406 L 57.515625 326.5 L 56.125 326.5 L 56.125 314.1875 L 57.515625 314.1875 L 57.515625 321.539062 L 64.585938 314.1875 L 66.382812 314.1875 L 61.101562 319.570312 Z M 66.613281 326.5 " fill-opacity="1" fill-rule="nonzero"/><path fill="#4d4d4d" d="M 69.902344 326.5 L 68.546875 326.5 L 68.546875 317.40625 L 69.902344 317.40625 L 69.902344 318.988281 C 70.5 318.003906 71.449219 317.210938 73.015625 317.210938 C 75.214844 317.210938 76.5 318.691406 76.5 320.851562 L 76.5 326.5 L 75.144531 326.5 L 75.144531 321.1875 C 75.144531 319.5 74.230469 318.441406 72.628906 318.441406 C 71.0625 318.441406 69.902344 319.585938 69.902344 321.292969 Z M 69.902344 326.5 " fill-opacity="1" fill-rule="nonzero"/><path fill="#4d4d4d" d="M 83.539062 318.410156 C 81.566406 318.410156 80.210938 319.972656 80.210938 321.945312 C 80.210938 323.914062 81.65625 325.496094 83.574219 325.496094 C 85.542969 325.496094 86.917969 323.933594 86.917969 321.980469 C 86.917969 319.992188 85.457031 318.410156 83.539062 318.410156 Z M 83.539062 326.710938 C 80.808594 326.710938 78.820312 324.566406 78.820312 321.980469 C 78.820312 319.394531 80.828125 317.210938 83.574219 317.210938 C 86.300781 317.210938 88.308594 319.359375 88.308594 321.945312 C 88.308594 324.53125 86.285156 326.710938 83.539062 326.710938 Z M 83.539062 326.710938 " fill-opacity="1" fill-rule="nonzero"/><path fill="#4d4d4d" d="M 99.410156 324.707031 L 101.804688 317.40625 L 103.210938 317.40625 L 100.007812 326.570312 L 98.828125 326.570312 L 96.382812 319.394531 L 93.917969 326.570312 L 92.722656 326.570312 L 89.539062 317.40625 L 90.980469 317.40625 L 93.375 324.707031 L 95.820312 317.371094 L 96.945312 317.371094 Z M 99.410156 324.707031 " fill-opacity="1" fill-rule="nonzero"/><path fill="#4d4d4d" d="M 105.585938 313.65625 L 106.9375 313.65625 L 106.9375 326.5 L 105.585938 326.5 Z M 105.585938 313.65625 " fill-opacity="1" fill-rule="nonzero"/><path fill="#4d4d4d" d="M 116.757812 321.453125 C 116.617188 319.796875 115.667969 318.355469 113.855469 318.355469 C 112.273438 318.355469 111.074219 319.675781 110.898438 321.453125 Z M 114.101562 325.53125 C 115.351562 325.53125 116.230469 325.023438 116.96875 324.25 L 117.8125 325.003906 C 116.898438 326.023438 115.789062 326.710938 114.066406 326.710938 C 111.566406 326.710938 109.527344 324.792969 109.527344 321.960938 C 109.527344 319.320312 111.371094 317.210938 113.890625 317.210938 C 116.582031 317.210938 118.128906 319.355469 118.128906 322.03125 C 118.128906 322.15625 118.128906 322.296875 118.113281 322.453125 L 110.898438 322.453125 C 111.089844 324.425781 112.5 325.53125 114.101562 325.53125 Z M 114.101562 325.53125 " fill-opacity="1" fill-rule="nonzero"/><path fill="#4d4d4d" d="M 124.570312 318.425781 C 122.8125 318.425781 121.367188 319.726562 121.367188 321.945312 C 121.367188 324.109375 122.847656 325.480469 124.570312 325.480469 C 126.257812 325.480469 127.863281 324.074219 127.863281 321.945312 C 127.863281 319.832031 126.257812 318.425781 124.570312 318.425781 Z M 127.808594 326.5 L 127.808594 324.671875 C 127.070312 325.761719 125.996094 326.691406 124.324219 326.691406 C 122.140625 326.691406 119.976562 324.96875 119.976562 321.960938 C 119.976562 318.972656 122.140625 317.210938 124.324219 317.210938 C 126.011719 317.210938 127.105469 318.125 127.808594 319.148438 L 127.808594 313.65625 L 129.164062 313.65625 L 129.164062 326.5 Z M 127.808594 326.5 " fill-opacity="1" fill-rule="nonzero"/><path fill="#4d4d4d" d="M 136.203125 318.410156 C 134.476562 318.410156 133.050781 319.585938 133.050781 321.488281 C 133.050781 323.351562 134.511719 324.601562 136.203125 324.601562 C 137.925781 324.601562 139.542969 323.367188 139.542969 321.503906 C 139.542969 319.621094 137.925781 318.410156 136.203125 318.410156 Z M 136.21875 329.351562 C 134.707031 329.351562 133.296875 328.925781 132.082031 328.082031 L 132.699219 327.027344 C 133.738281 327.785156 134.898438 328.1875 136.203125 328.1875 C 138.207031 328.1875 139.511719 327.082031 139.511719 324.953125 L 139.511719 323.878906 C 138.71875 324.933594 137.609375 325.796875 135.9375 325.796875 C 133.753906 325.796875 131.660156 324.179688 131.660156 321.519531 C 131.660156 318.847656 133.773438 317.210938 135.9375 317.210938 C 137.644531 317.210938 138.753906 318.054688 139.492188 319.042969 L 139.492188 317.40625 L 140.847656 317.40625 L 140.847656 324.917969 C 140.847656 327.855469 139.015625 329.351562 136.21875 329.351562 Z M 136.21875 329.351562 " fill-opacity="1" fill-rule="nonzero"/><path fill="#4d4d4d" d="M 150.542969 321.453125 C 150.398438 319.796875 149.449219 318.355469 147.636719 318.355469 C 146.054688 318.355469 144.855469 319.675781 144.679688 321.453125 Z M 147.882812 325.53125 C 149.132812 325.53125 150.011719 325.023438 150.753906 324.25 L 151.597656 325.003906 C 150.683594 326.023438 149.574219 326.710938 147.847656 326.710938 C 145.347656 326.710938 143.308594 324.792969 143.308594 321.960938 C 143.308594 319.320312 145.15625 317.210938 147.671875 317.210938 C 150.363281 317.210938 151.914062 319.355469 151.914062 322.03125 C 151.914062 322.15625 151.914062 322.296875 151.894531 322.453125 L 144.679688 322.453125 C 144.875 324.425781 146.28125 325.53125 147.882812 325.53125 Z M 147.882812 325.53125 " fill-opacity="1" fill-rule="nonzero"/><path fill="#4d4d4d" d="M 154.589844 326.5 L 153.953125 326.5 L 153.953125 324.652344 L 155.574219 324.652344 L 155.574219 326.238281 C 155.574219 327.660156 154.957031 328.347656 153.621094 328.644531 L 153.410156 328.03125 C 154.289062 327.714844 154.660156 327.257812 154.589844 326.5 Z M 154.589844 326.5 " fill-opacity="1" fill-rule="nonzero"/><path fill="#4d4d4d" d="M 172.835938 315.453125 L 165.320312 315.453125 L 165.320312 319.65625 L 172.042969 319.65625 L 172.042969 320.921875 L 165.320312 320.921875 L 165.320312 325.234375 L 172.921875 325.234375 L 172.921875 326.5 L 163.929688 326.5 L 163.929688 314.1875 L 172.835938 314.1875 Z M 172.835938 315.453125 " fill-opacity="1" fill-rule="nonzero"/><path fill="#4d4d4d" d="M 176.847656 326.5 L 175.492188 326.5 L 175.492188 317.40625 L 176.847656 317.40625 L 176.847656 318.988281 C 177.445312 318.003906 178.394531 317.210938 179.960938 317.210938 C 182.160156 317.210938 183.445312 318.691406 183.445312 320.851562 L 183.445312 326.5 L 182.089844 326.5 L 182.089844 321.1875 C 182.089844 319.5 181.175781 318.441406 179.574219 318.441406 C 178.007812 318.441406 176.847656 319.585938 176.847656 321.292969 Z M 176.847656 326.5 " fill-opacity="1" fill-rule="nonzero"/><path fill="#4d4d4d" d="M 190.34375 318.410156 C 188.617188 318.410156 187.191406 319.585938 187.191406 321.488281 C 187.191406 323.351562 188.652344 324.601562 190.34375 324.601562 C 192.066406 324.601562 193.6875 323.367188 193.6875 321.503906 C 193.6875 319.621094 192.066406 318.410156 190.34375 318.410156 Z M 190.359375 329.351562 C 188.847656 329.351562 187.4375 328.925781 186.226562 328.082031 L 186.839844 327.027344 C 187.878906 327.785156 189.039062 328.1875 190.34375 328.1875 C 192.347656 328.1875 193.652344 327.082031 193.652344 324.953125 L 193.652344 323.878906 C 192.859375 324.933594 191.75 325.796875 190.078125 325.796875 C 187.894531 325.796875 185.800781 324.179688 185.800781 321.519531 C 185.800781 318.847656 187.914062 317.210938 190.078125 317.210938 C 191.785156 317.210938 192.894531 318.054688 193.632812 319.042969 L 193.632812 317.40625 L 194.988281 317.40625 L 194.988281 324.917969 C 194.988281 327.855469 193.160156 329.351562 190.359375 329.351562 Z M 190.359375 329.351562 " fill-opacity="1" fill-rule="nonzero"/><path fill="#4d4d4d" d="M 198.136719 317.40625 L 199.492188 317.40625 L 199.492188 326.5 L 198.136719 326.5 Z M 198.046875 313.921875 L 199.597656 313.921875 L 199.597656 315.417969 L 198.046875 315.417969 Z M 198.046875 313.921875 " fill-opacity="1" fill-rule="nonzero"/><path fill="#4d4d4d" d="M 203.996094 326.5 L 202.640625 326.5 L 202.640625 317.40625 L 203.996094 317.40625 L 203.996094 318.988281 C 204.59375 318.003906 205.542969 317.210938 207.109375 317.210938 C 209.308594 317.210938 210.59375 318.691406 210.59375 320.851562 L 210.59375 326.5 L 209.238281 326.5 L 209.238281 321.1875 C 209.238281 319.5 208.324219 318.441406 206.722656 318.441406 C 205.15625 318.441406 203.996094 319.585938 203.996094 321.292969 Z M 203.996094 326.5 " fill-opacity="1" fill-rule="nonzero"/><path fill="#4d4d4d" d="M 220.148438 321.453125 C 220.007812 319.796875 219.058594 318.355469 217.246094 318.355469 C 215.664062 318.355469 214.464844 319.675781 214.289062 321.453125 Z M 217.492188 325.53125 C 218.742188 325.53125 219.621094 325.023438 220.359375 324.25 L 221.207031 325.003906 C 220.289062 326.023438 219.183594 326.710938 217.457031 326.710938 C 214.957031 326.710938 212.917969 324.792969 212.917969 321.960938 C 212.917969 319.320312 214.765625 317.210938 217.28125 317.210938 C 219.972656 317.210938 221.523438 319.355469 221.523438 322.03125 C 221.523438 322.15625 221.523438 322.296875 221.503906 322.453125 L 214.289062 322.453125 C 214.484375 324.425781 215.890625 325.53125 217.492188 325.53125 Z M 217.492188 325.53125 " fill-opacity="1" fill-rule="nonzero"/><path fill="#4d4d4d" d="M 230.566406 321.453125 C 230.425781 319.796875 229.476562 318.355469 227.664062 318.355469 C 226.078125 318.355469 224.882812 319.675781 224.707031 321.453125 Z M 227.910156 325.53125 C 229.15625 325.53125 230.039062 325.023438 230.777344 324.25 L 231.621094 325.003906 C 230.707031 326.023438 229.597656 326.710938 227.875 326.710938 C 225.375 326.710938 223.332031 324.792969 223.332031 321.960938 C 223.332031 319.320312 225.179688 317.210938 227.699219 317.210938 C 230.390625 317.210938 231.9375 319.355469 231.9375 322.03125 C 231.9375 322.15625 231.9375 322.296875 231.921875 322.453125 L 224.707031 322.453125 C 224.898438 324.425781 226.308594 325.53125 227.910156 325.53125 Z M 227.910156 325.53125 " fill-opacity="1" fill-rule="nonzero"/><path fill="#4d4d4d" d="M 235.667969 326.5 L 234.3125 326.5 L 234.3125 317.40625 L 235.667969 317.40625 L 235.667969 319.78125 C 236.335938 318.265625 237.65625 317.175781 239.378906 317.246094 L 239.378906 318.707031 L 239.273438 318.707031 C 237.285156 318.707031 235.667969 320.132812 235.667969 322.875 Z M 235.667969 326.5 " fill-opacity="1" fill-rule="nonzero"/><path fill="#4d4d4d" d="M 241.5625 317.40625 L 242.917969 317.40625 L 242.917969 326.5 L 241.5625 326.5 Z M 241.476562 313.921875 L 243.023438 313.921875 L 243.023438 315.417969 L 241.476562 315.417969 Z M 241.476562 313.921875 " fill-opacity="1" fill-rule="nonzero"/><path fill="#4d4d4d" d="M 247.421875 326.5 L 246.066406 326.5 L 246.066406 317.40625 L 247.421875 317.40625 L 247.421875 318.988281 C 248.019531 318.003906 248.96875 317.210938 250.535156 317.210938 C 252.738281 317.210938 254.019531 318.691406 254.019531 320.851562 L 254.019531 326.5 L 252.664062 326.5 L 252.664062 321.1875 C 252.664062 319.5 251.75 318.441406 250.148438 318.441406 C 248.582031 318.441406 247.421875 319.585938 247.421875 321.292969 Z M 247.421875 326.5 " fill-opacity="1" fill-rule="nonzero"/><path fill="#4d4d4d" d="M 260.917969 318.410156 C 259.195312 318.410156 257.769531 319.585938 257.769531 321.488281 C 257.769531 323.351562 259.230469 324.601562 260.917969 324.601562 C 262.640625 324.601562 264.261719 323.367188 264.261719 321.503906 C 264.261719 319.621094 262.640625 318.410156 260.917969 318.410156 Z M 260.933594 329.351562 C 259.421875 329.351562 258.015625 328.925781 256.800781 328.082031 L 257.417969 327.027344 C 258.453125 327.785156 259.617188 328.1875 260.917969 328.1875 C 262.921875 328.1875 264.226562 327.082031 264.226562 324.953125 L 264.226562 323.878906 C 263.433594 324.933594 262.324219 325.796875 260.652344 325.796875 C 258.472656 325.796875 256.378906 324.179688 256.378906 321.519531 C 256.378906 318.847656 258.488281 317.210938 260.652344 317.210938 C 262.359375 317.210938 263.46875 318.054688 264.207031 319.042969 L 264.207031 317.40625 L 265.5625 317.40625 L 265.5625 324.917969 C 265.5625 327.855469 263.734375 329.351562 260.933594 329.351562 Z M 260.933594 329.351562 " fill-opacity="1" fill-rule="nonzero"/><path fill="#4d4d4d" d="M 275.644531 317.230469 C 275.644531 318.074219 276.03125 318.722656 276.539062 319.359375 C 277.738281 318.671875 278.511719 318.039062 278.511719 317.035156 C 278.511719 316.316406 278.109375 315.503906 277.140625 315.503906 C 276.15625 315.503906 275.644531 316.316406 275.644531 317.230469 Z M 279.25 324.460938 C 278.546875 323.6875 277.226562 322.242188 275.90625 320.730469 C 275.273438 321.132812 274.378906 321.890625 274.378906 323.140625 C 274.378906 324.496094 275.378906 325.53125 276.804688 325.53125 C 277.828125 325.53125 278.6875 325.074219 279.25 324.460938 Z M 281.117188 326.5 C 280.78125 326.164062 280.464844 325.832031 280.007812 325.339844 C 278.988281 326.289062 277.84375 326.695312 276.539062 326.695312 C 274.234375 326.695312 272.898438 325.144531 272.898438 323.367188 C 272.898438 321.75 273.867188 320.640625 275.222656 319.902344 L 275.222656 319.851562 C 274.605469 319.078125 274.234375 318.214844 274.234375 317.371094 C 274.234375 315.925781 275.273438 314.449219 277.246094 314.449219 C 278.722656 314.449219 279.867188 315.433594 279.867188 316.964844 C 279.867188 318.214844 279.144531 319.199219 277.261719 320.132812 L 277.261719 320.183594 C 278.265625 321.347656 279.394531 322.648438 280.148438 323.492188 C 280.695312 322.664062 281.0625 321.519531 281.292969 320.027344 L 282.699219 320.027344 C 282.382812 321.890625 281.875 323.367188 280.992188 324.40625 C 281.625 325.074219 282.242188 325.746094 282.949219 326.5 Z M 281.117188 326.5 " fill-opacity="1" fill-rule="nonzero"/><path fill="#4d4d4d" d="M 288.46875 314.1875 L 289.859375 314.1875 L 289.859375 325.214844 L 296.796875 325.214844 L 296.796875 326.5 L 288.46875 326.5 Z M 288.46875 314.1875 " fill-opacity="1" fill-rule="nonzero"/><path fill="#4d4d4d" d="M 299.820312 323.789062 C 299.820312 324.953125 300.875 325.621094 302.109375 325.621094 C 303.78125 325.621094 305.152344 324.601562 305.152344 323.15625 L 305.152344 322.277344 C 304.484375 322.085938 303.585938 321.890625 302.476562 321.890625 C 300.769531 321.890625 299.820312 322.628906 299.820312 323.789062 Z M 299.664062 319.148438 L 299.257812 318.039062 C 300.261719 317.582031 301.246094 317.28125 302.566406 317.28125 C 305.046875 317.28125 306.4375 318.550781 306.4375 320.941406 L 306.4375 326.5 L 305.136719 326.5 L 305.136719 325.128906 C 304.5 325.957031 303.445312 326.695312 301.84375 326.695312 C 300.15625 326.695312 298.445312 325.742188 298.445312 323.84375 C 298.445312 321.910156 300.03125 320.886719 302.335938 320.886719 C 303.496094 320.886719 304.324219 321.046875 305.136719 321.277344 L 305.136719 320.957031 C 305.136719 319.324219 304.132812 318.480469 302.425781 318.480469 C 301.351562 318.480469 300.507812 318.757812 299.664062 319.148438 Z M 299.664062 319.148438 " fill-opacity="1" fill-rule="nonzero"/><path fill="#4d4d4d" d="M 313.914062 318.425781 C 312.226562 318.425781 310.625 319.832031 310.625 321.945312 C 310.625 324.074219 312.226562 325.480469 313.914062 325.480469 C 315.675781 325.480469 317.117188 324.179688 317.117188 321.960938 C 317.117188 319.796875 315.640625 318.425781 313.914062 318.425781 Z M 314.160156 326.691406 C 312.472656 326.691406 311.378906 325.777344 310.675781 324.757812 L 310.675781 326.5 L 309.320312 326.5 L 309.320312 313.65625 L 310.675781 313.65625 L 310.675781 319.234375 C 311.414062 318.144531 312.488281 317.210938 314.160156 317.210938 C 316.34375 317.210938 318.507812 318.9375 318.507812 321.945312 C 318.507812 324.933594 316.359375 326.691406 314.160156 326.691406 Z M 314.160156 326.691406 " fill-opacity="1" fill-rule="nonzero"/><path fill="#45c93e" d="M 87.445312 61.871094 C 99.707031 72.292969 132.410156 75.492188 154.664062 72.78125 C 155.929688 72.625 159.53125 72.382812 162.882812 74.175781 C 155.574219 67.257812 153.5625 63.386719 150.34375 57.605469 C 129.058594 49.265625 110.4375 56.585938 86.867188 54.347656 C 77.546875 53.460938 67.457031 51.082031 56.117188 45.648438 C 79.9375 75.386719 112.660156 89.421875 118.003906 91.183594 C 132.804688 96.058594 145.355469 90.617188 156.285156 88.808594 C 161.742188 87.90625 168.1875 88.699219 172.90625 92.328125 C 178.101562 96.320312 184.171875 103.953125 182.949219 113.878906 C 181.824219 123.019531 176.316406 128.835938 170.125 132.09375 C 162.785156 135.953125 150.726562 134.671875 141.796875 134.671875 C 131.394531 134.671875 120.445312 134.34375 110.117188 134.710938 C 112.011719 137.566406 114.074219 139.492188 116.105469 142.132812 L 135.867188 165.746094 C 136.503906 166.492188 136.769531 166.667969 137.402344 167.476562 C 144.464844 176.488281 157.015625 190.90625 164.847656 200.175781 C 166.925781 202.632812 168.957031 205.246094 170.996094 207.539062 C 174.480469 211.457031 181.308594 216.78125 185.890625 219.648438 C 199.886719 228.40625 209.9375 230.136719 228.90625 230.898438 C 228.082031 229.042969 209.625 207.355469 207.726562 205.195312 L 175.792969 167.152344 C 174.625 165.820312 173.214844 164.296875 172.34375 162.660156 C 176.449219 161.964844 181.101562 159.773438 184.597656 158.015625 C 186.839844 156.886719 189.574219 155.085938 192.175781 153.078125 L 178.230469 136.269531 C 177.617188 135.53125 177.484375 134.570312 177.878906 133.691406 C 178.269531 132.8125 179.078125 132.269531 180.039062 132.234375 C 189.472656 131.898438 198.917969 132.128906 208.359375 132.183594 C 208.5625 131.734375 208.765625 131.273438 208.96875 130.800781 C 214.609375 117.800781 213.675781 103.335938 208.980469 91.371094 C 198.136719 91.289062 186.007812 88.84375 176.371094 83.675781 C 173.941406 82.371094 171 80.398438 168.5625 78.832031 C 166.046875 77.207031 164.03125 76.015625 161.316406 76.316406 C 141.847656 78.46875 108.472656 82.894531 87.445312 61.871094 Z M 87.445312 61.871094 " fill-opacity="1" fill-rule="evenodd"/><path fill="#000180" d="M 256.011719 191 C 260.3125 177.347656 254.472656 169.441406 249.578125 160.847656 C 249.625 160.667969 249.664062 160.488281 249.710938 160.304688 C 251.464844 159.554688 253.136719 158.742188 254.605469 158 C 259.15625 155.710938 265.730469 150.660156 269.113281 146.730469 C 273.5625 141.554688 276.101562 137.417969 278.980469 130.785156 C 287.027344 112.230469 281.449219 90.078125 271.089844 77.605469 C 257.59375 61.355469 243.742188 57.601562 222.851562 57.601562 C 199.941406 57.601562 176.988281 57.742188 154.082031 57.589844 C 159.695312 69.367188 173.660156 81.4375 188.183594 85.4375 C 211.734375 93.195312 229.714844 82.980469 242.417969 92.746094 C 247.617188 96.742188 253.242188 104.054688 252.023438 113.980469 C 250.898438 123.121094 246.324219 128.824219 240.132812 132.078125 C 232.792969 135.9375 220.738281 134.65625 211.804688 134.65625 C 201.40625 134.65625 190.457031 134.328125 180.125 134.699219 L 205.875 165.734375 C 206.511719 166.476562 206.777344 166.652344 207.414062 167.464844 C 214.472656 176.476562 239.515625 206.34375 247.347656 215.613281 C 247.1875 210.382812 248.351562 206.855469 250.5 202.621094 C 252.082031 199.503906 254.421875 196.054688 256.011719 191 Z M 256.011719 191 " fill-opacity="1" fill-rule="evenodd"/><path fill="#000180" d="M 254.289062 163.914062 C 254.34375 164.238281 257.316406 170.371094 258.390625 173.824219 C 263.179688 189.195312 254.199219 198.8125 251.101562 207.046875 C 245.082031 223.058594 260.140625 241.789062 275.402344 233.519531 C 280.992188 230.488281 285.699219 224.25 286.804688 216.417969 C 288.859375 201.8125 277.921875 187.308594 269.355469 177.582031 C 267.527344 175.503906 256.992188 164.941406 254.289062 163.914062 Z M 254.289062 163.914062 " fill-opacity="1" fill-rule="evenodd"/></svg>