<?xml version="1.0" encoding="UTF-8"?>
<!DOCTYPE svg PUBLIC "-//W3C//DTD SVG 1.1//EN" "http://www.w3.org/Graphics/SVG/1.1/DTD/svg11.dtd">
<!-- Creator: CorelDRAW -->
<svg xmlns="http://www.w3.org/2000/svg" xml:space="preserve" width="508mm" height="285.75mm" version="1.1" style="shape-rendering:geometricPrecision; text-rendering:geometricPrecision; image-rendering:optimizeQuality; fill-rule:evenodd; clip-rule:evenodd"
viewBox="0 0 50800 28575"
 xmlns:xlink="http://www.w3.org/1999/xlink"
 xmlns:xodm="http://www.corel.com/coreldraw/odm/2003">
 <defs>
  <style type="text/css">
   <![CDATA[
    .fil1 {fill:none;fill-rule:nonzero}
    .fil3 {fill:#000180}
    .fil2 {fill:#45C93E}
    .fil0 {fill:#4D4D4D;fill-rule:nonzero}
   ]]>
  </style>
 </defs>
 <g id="Capa_x0020_1">
  <metadata id="CorelCorpID_0Corel-Layer"/>
  <g id="_2470297990224">
   <polygon class="fil0" points="18062.28,22835.06 16774.65,21067.19 16294.08,21565.57 16294.08,22835.06 15380.22,22835.06 15380.22,18682.31 16294.08,18682.31 16294.08,20497.69 17979.25,18682.31 19082.78,18682.31 17391.69,20444.27 19159.9,22835.06 "/>
   <polygon class="fil0" points="19712.02,22835.06 19712.02,18682.31 22844.98,18682.31 22844.98,19495.07 20619.88,19495.07 20619.88,20337.51 22577.98,20337.51 22577.98,21150.27 20619.88,21150.27 20619.88,22022.31 22874.66,22022.31 22874.66,22835.06 "/>
   <polygon class="fil0" points="23528.51,22835.06 23528.51,18682.31 24442.21,18682.31 24442.21,22004.54 26513.09,22004.54 26513.09,22835.06 "/>
   <path class="fil0" d="M34511.99 21571.52c0,-278.93 -207.59,-450.95 -676.39,-450.95l-1056.16 0 0 913.68 1085.84 0c403.46,0 646.71,-142.43 646.71,-450.96l0 -11.77zm-231.4 -1661.12c0,-272.94 -213.58,-427.14 -599.21,-427.14l-901.94 0 0 877.96 842.53 0c403.52,0 658.62,-130.52 658.62,-438.92l0 -11.9zm-415.31 2924.63l-1975.87 0 0 -4152.68 1928.49 0c848.39,0 1370.55,421.21 1370.55,1073.85l0 11.77c0,468.72 -249.24,729.68 -545.92,895.79 480.57,184 777.25,462.79 777.25,1020.51l0 11.78c0,759.34 -617.1,1138.98 -1554.5,1138.98z"/>
   <path class="fil0" d="M29035.06 19764.99l-551.91 1346.67 1103.74 0 -551.83 -1346.67zm1257.88 3084.88l-379.7 -931.3 -1756.44 0 -379.71 931.3 -931.48 0 1779.99 -4182.36 842.59 0 1779.99 4182.36 -955.24 0z"/>
   <line class="fil1" x1="23528.5" y1="18682.32" x2="23528.5" y2= "22835.08" />
   <polygon class="fil0" points="16184.33,24879.49 16051.57,24879.49 15690.92,24425.02 15491.16,24627.43 15491.16,24879.49 15385.22,24879.49 15385.22,23941.11 15491.16,23941.11 15491.16,24501.43 16030.1,23941.11 16166.86,23941.11 15764.65,24351.35 "/>
   <path class="fil0" d="M16434.9 24879.49l-103.19 0 0 -693.06 103.19 0 0 120.64c45.6,-75.04 117.98,-135.36 237.31,-135.36 167.65,0 265.51,112.59 265.51,277.45l0 430.33 -103.29 0 0 -404.82c0,-128.68 -69.7,-209.15 -191.74,-209.15 -119.33,0 -207.79,87.15 -207.79,217.2l0 396.77z"/>
   <path class="fil0" d="M17473.91 24262.87c-150.14,0 -253.4,119.26 -253.4,269.45 0,150.08 109.98,270.71 256.09,270.71 150.19,0 254.75,-119.26 254.75,-268.08 0,-151.52 -111.31,-272.08 -257.44,-272.08zm0 632.67c-207.78,0 -359.26,-163.5 -359.26,-360.59 0,-197.05 152.78,-363.22 361.95,-363.22 207.81,0 360.75,163.49 360.75,360.59 0,196.99 -154.23,363.22 -363.44,363.22z"/>
   <polygon class="fil0" points="18683.26,24742.76 18865.6,24186.43 18972.86,24186.43 18728.86,24884.85 18639.02,24884.85 18452.61,24337.89 18264.89,24884.85 18173.75,24884.85 17931.05,24186.43 18041.03,24186.43 18223.33,24742.76 18409.67,24183.76 18495.53,24183.76 "/>
   <polygon class="fil0" points="19153.69,23900.89 19256.89,23900.89 19256.89,24879.5 19153.69,24879.5 "/>
   <path class="fil0" d="M20005.03 24494.75c-10.79,-126 -83.14,-235.9 -221.26,-235.9 -120.6,0 -211.89,100.55 -225.22,235.9l446.48 0zm-202.44 311c95.14,0 162.21,-38.92 218.55,-97.86l64.32 57.63c-69.69,77.78 -154.17,130.05 -285.56,130.05 -190.44,0 -345.93,-146.14 -345.93,-361.96 0,-201.1 140.74,-361.9 332.49,-361.9 205.09,0 323.13,163.48 323.13,367.27 0,9.36 0,20.14 -1.36,32.18l-549.68 0c14.72,150.14 122.01,234.59 244.04,234.59z"/>
   <path class="fil0" d="M20600.25 24264.21c-134.08,0 -244.07,99.17 -244.07,268.09 0,164.91 112.67,269.46 244.07,269.46 128.69,0 250.73,-107.23 250.73,-269.46 0,-160.87 -122.04,-268.09 -250.73,-268.09zm246.72 615.26l0 -139.41c-56.4,83.16 -138.18,154.13 -265.51,154.13 -166.26,0 -331.16,-131.35 -331.16,-360.52 0,-227.93 164.9,-361.97 331.16,-361.97 128.71,0 211.79,69.67 265.51,147.46l0 -418.29 103.19 0 0 978.6 -103.19 0z"/>
   <path class="fil0" d="M21486.4 24262.87c-131.4,0 -239.99,89.81 -239.99,234.58 0,142.04 111.27,237.28 239.99,237.28 131.39,0 254.74,-93.87 254.74,-235.97 0,-143.4 -123.35,-235.89 -254.74,-235.89zm1.32 833.76c-115.29,0 -222.56,-32.18 -315.05,-96.49l46.89 -80.4c79.1,57.57 167.59,88.45 266.84,88.45 152.78,0 252.11,-84.46 252.11,-246.7l0 -81.77c-60.4,80.47 -144.87,146.15 -272.26,146.15 -166.25,0 -325.79,-123.33 -325.79,-325.79 0,-203.72 160.89,-328.35 325.79,-328.35 130.07,0 214.54,64.31 270.88,139.41l0 -124.69 103.2 0 0 572.36c0,223.86 -139.4,337.82 -352.61,337.82z"/>
   <path class="fil0" d="M22579 24494.75c-10.8,-126 -83.17,-235.9 -221.3,-235.9 -120.59,0 -211.85,100.55 -225.21,235.9l446.51 0zm-202.45 311c95.15,0 162.19,-38.92 218.53,-97.86l64.32 57.63c-69.66,77.78 -154.13,130.05 -285.53,130.05 -190.47,0 -345.94,-146.14 -345.94,-361.96 0,-201.1 140.75,-361.9 332.46,-361.9 205.13,0 323.17,163.48 323.17,367.27 0,9.36 0,20.14 -1.39,32.18l-549.68 0c14.71,150.14 122.01,234.59 244.06,234.59z"/>
   <path class="fil0" d="M22887.3 24879.49l-48.34 0 0 -140.73 123.4 0 0 120.64c0,108.53 -46.92,160.81 -148.8,183.63l-16.16 -46.9c67.07,-24.14 95.27,-59.01 89.9,-116.64z"/>
   <polygon class="fil0" points="24277.56,24037.61 23705.05,24037.61 23705.05,24358.03 24217.25,24358.03 24217.25,24454.52 23705.05,24454.52 23705.05,24782.99 24284.22,24782.99 24284.22,24879.49 23599.11,24879.49 23599.11,23941.11 24277.56,23941.11 "/>
   <path class="fil0" d="M24583.14 24879.49l-103.2 0 0 -693.06 103.2 0 0 120.64c45.6,-75.04 117.98,-135.36 237.31,-135.36 167.65,0 265.51,112.59 265.51,277.45l0 430.33 -103.29 0 0 -404.82c0,-128.68 -69.69,-209.15 -191.71,-209.15 -119.37,0 -207.82,87.15 -207.82,217.2l0 396.77z"/>
   <path class="fil0" d="M25611.45 24262.87c-131.37,0 -239.99,89.81 -239.99,234.58 0,142.04 111.28,237.28 239.99,237.28 131.4,0 254.75,-93.87 254.75,-235.97 0,-143.4 -123.35,-235.89 -254.75,-235.89zm1.33 833.76c-115.29,0 -222.53,-32.18 -315.05,-96.49l46.89 -80.4c79.13,57.57 167.58,88.45 266.83,88.45 152.81,0 252.12,-84.46 252.12,-246.7l0 -81.77c-60.41,80.47 -144.88,146.15 -272.26,146.15 -166.26,0 -325.8,-123.33 -325.8,-325.79 0,-203.72 160.9,-328.35 325.8,-328.35 130.07,0 214.53,64.31 270.87,139.41l0 -124.69 103.2 0 0 572.36c0,223.86 -139.39,337.82 -352.6,337.82z"/>
   <path class="fil0" d="M26205.25 24186.45l103.2 0 0 693.05 -103.2 0 0 -693.05zm-6.69 -265.41l117.98 0 0 113.89 -117.98 0 0 -113.89z"/>
   <path class="fil0" d="M26651.67 24879.49l-103.19 0 0 -693.06 103.19 0 0 120.64c45.6,-75.04 117.95,-135.36 237.31,-135.36 167.61,0 265.51,112.59 265.51,277.45l0 430.33 -103.29 0 0 -404.82c0,-128.68 -69.7,-209.15 -191.75,-209.15 -119.32,0 -207.78,87.15 -207.78,217.2l0 396.77z"/>
   <path class="fil0" d="M27882.46 24494.75c-10.79,-126 -83.14,-235.9 -221.29,-235.9 -120.57,0 -211.86,100.55 -225.23,235.9l446.52 0zm-202.45 311c95.15,0 162.22,-38.92 218.56,-97.86l64.32 57.63c-69.69,77.78 -154.17,130.05 -285.56,130.05 -190.48,0 -345.93,-146.14 -345.93,-361.96 0,-201.1 140.74,-361.9 332.45,-361.9 205.13,0 323.16,163.48 323.16,367.27 0,9.36 0,20.14 -1.35,32.18l-549.72 0c14.75,150.14 122.05,234.59 244.07,234.59z"/>
   <path class="fil0" d="M28676.11 24494.75c-10.8,-126 -83.14,-235.9 -221.26,-235.9 -120.6,0 -211.89,100.55 -225.22,235.9l446.48 0zm-202.45 311c95.15,0 162.22,-38.92 218.56,-97.86l64.32 57.63c-69.69,77.78 -154.16,130.05 -285.56,130.05 -190.45,0 -345.94,-146.14 -345.94,-361.96 0,-201.1 140.75,-361.9 332.49,-361.9 205.1,0 323.14,163.48 323.14,367.27 0,9.36 0,20.14 -1.36,32.18l-549.68 0c14.72,150.14 122.02,234.59 244.03,234.59z"/>
   <path class="fil0" d="M29064.75 24879.49l-103.17 0 0 -693.06 103.17 0 0 180.96c50.94,-115.27 151.54,-198.42 282.94,-192.99l0 111.21 -8.06 0c-151.54,0 -274.88,108.6 -274.88,317.74l0 276.14z"/>
   <path class="fil0" d="M29513.89 24186.45l103.2 0 0 693.05 -103.2 0 0 -693.05zm-6.67 -265.41l117.98 0 0 113.89 -117.98 0 0 -113.89z"/>
   <path class="fil0" d="M29960.31 24879.49l-103.2 0 0 -693.06 103.2 0 0 120.64c45.6,-75.04 117.97,-135.36 237.31,-135.36 167.64,0 265.53,112.59 265.53,277.45l0 430.33 -103.31 0 0 -404.82c0,-128.68 -69.7,-209.15 -191.72,-209.15 -119.36,0 -207.81,87.15 -207.81,217.2l0 396.77z"/>
   <path class="fil0" d="M30988.62 24262.87c-131.37,0 -239.99,89.81 -239.99,234.58 0,142.04 111.31,237.28 239.99,237.28 131.39,0 254.74,-93.87 254.74,-235.97 0,-143.4 -123.35,-235.89 -254.74,-235.89zm1.32 833.76c-115.29,0 -222.53,-32.18 -315.05,-96.49l46.92 -80.4c79.11,57.57 167.56,88.45 266.81,88.45 152.8,0 252.11,-84.46 252.11,-246.7l0 -81.77c-60.38,80.47 -144.84,146.15 -272.26,146.15 -166.25,0 -325.79,-123.33 -325.79,-325.79 0,-203.72 160.92,-328.35 325.79,-328.35 130.07,0 214.54,64.31 270.88,139.41l0 -124.69 103.2 0 0 572.36c0,223.86 -139.36,337.82 -352.61,337.82z"/>
   <path class="fil0" d="M32110.63 24173.05c0,64.31 29.49,113.91 68.3,162.18 91.29,-52.27 150.25,-100.55 150.25,-176.96 0,-54.95 -30.89,-116.63 -104.59,-116.63 -75.09,0 -113.96,61.68 -113.96,131.41zm274.82 550.91c-53.6,-58.95 -154.17,-168.91 -254.74,-284.13 -48.29,30.76 -116.59,88.45 -116.59,183.64 0,103.17 76.36,182.26 184.96,182.26 77.8,0 143.49,-34.87 186.37,-81.77zm142.16 155.56c-25.51,-25.51 -49.64,-50.96 -84.47,-88.52 -77.81,72.43 -164.9,103.24 -264.21,103.24 -175.61,0 -277.48,-117.96 -277.48,-253.37 0,-123.32 73.8,-207.77 177,-264.1l0 -3.99c-46.93,-59.01 -75.13,-124.69 -75.13,-189 0,-109.97 79.1,-222.55 229.32,-222.55 112.61,0 199.7,75.04 199.7,191.67 0,95.19 -54.89,170.29 -198.38,241.34l0 3.99c76.49,88.51 162.26,187.69 219.92,252.06 41.55,-63.06 69.69,-150.2 87.15,-264.16l107.24 0c-24.16,142.15 -63,254.74 -130.07,333.84 48.23,50.89 95.27,101.91 148.86,159.55l-139.45 0z"/>
   <polygon class="fil0" points="33087.87,23941.11 33193.81,23941.11 33193.81,24781.67 33722.12,24781.67 33722.12,24879.48 33087.87,24879.48 "/>
   <path class="fil0" d="M33952.64 24673.03c0,88.46 80.46,139.41 174.31,139.41 127.38,0 231.88,-77.72 231.88,-187.69l0 -67.04c-50.91,-14.73 -119.27,-29.45 -203.75,-29.45 -130.03,0 -202.44,56.32 -202.44,144.77zm-12.07 -353.86l-30.87 -84.45c76.45,-34.87 151.48,-57.64 252.11,-57.64 189.03,0 294.97,96.5 294.97,278.76l0 423.65 -99.25 0 0 -104.54c-48.31,63 -128.71,119.26 -250.69,119.26 -128.75,0 -258.85,-72.35 -258.85,-217.18 0,-147.4 120.73,-225.18 296.36,-225.18 88.45,0 151.55,12.03 213.18,29.5l0 -24.14c0,-124.68 -76.39,-188.99 -206.46,-188.99 -81.78,0 -146.17,21.39 -210.5,50.95z"/>
   <path class="fil0" d="M35026.48 24264.21c-128.7,0 -250.75,107.22 -250.75,268.09 0,162.23 122.05,269.46 250.75,269.46 134.05,0 244.04,-99.24 244.04,-268.09 0,-164.92 -112.67,-269.46 -244.04,-269.46zm18.71 629.98c-128.69,0 -211.8,-69.67 -265.45,-147.39l0 132.67 -103.2 0 0 -978.6 103.2 0 0 424.96c56.33,-83.08 138.12,-154.13 265.45,-154.13 166.31,0 331.21,131.37 331.21,360.6 0,227.85 -163.57,361.89 -331.21,361.89z"/>
   <path class="fil2" d="M17771.79 4714.5c933.98,793.98 3425.86,1037.77 5121.29,831.28 96.5,-11.76 370.71,-30.36 626.18,106.3 -556.72,-527.05 -710.14,-822.12 -955.38,-1262.63 -1621.71,-635.67 -3040.47,-77.81 -4836.32,-248.42 -710.01,-67.44 -1478.9,-248.67 -2342.67,-662.68 1814.82,2265.91 4307.83,3335.62 4715.1,3469.78 1127.71,371.5 2083.85,-43.29 2916.6,-180.94 415.72,-68.73 906.83,-8.51 1266.42,267.96 395.92,304.42 858.15,885.93 765.13,1642.29 -85.66,696.59 -505.46,1139.87 -977.1,1387.91 -559.26,294.1 -1477.82,196.51 -2158.44,196.51 -792.34,0 -1626.57,-25.06 -2413.56,3.12 144.22,217.53 301.45,364.29 456.17,565.59l1505.71 1799.33c48.59,56.79 68.79,70.15 117.11,131.84 537.85,686.77 1494.2,1785.29 2091.01,2491.72 158.16,187.2 313,386.29 468.38,560.95 265.61,298.59 785.7,704.31 1134.77,922.76 1066.52,667.45 1832.27,799.41 3277.5,857.47 -62.77,-141.59 -1469.18,-1794.16 -1613.69,-1958.77l-2433.03 -2898.91c-89,-101.44 -196.56,-217.51 -262.88,-342.36 312.83,-52.77 667.39,-219.85 933.63,-353.93 170.83,-86.03 379.16,-223.17 577.41,-376.01l-1062.58 -1280.86c-46.8,-56.45 -56.81,-129.75 -26.83,-196.66 29.98,-66.92 91.35,-108.24 164.63,-110.86 718.75,-25.74 1438.57,-8.17 2157.76,-4.04 15.44,-34.22 30.96,-69.3 46.59,-105.38 429.63,-990.63 358.63,-2092.68 0.75,-3004.52 -826.3,-6.36 -1750.37,-192.56 -2484.38,-586.37 -185.19,-99.35 -409.42,-249.69 -594.92,-369.2 -191.86,-123.62 -345.27,-214.47 -552.12,-191.59 -1483.51,164.1 -4026.41,501.16 -5628.24,-1100.68z"/>
   <path class="fil3" d="M30614.92 14554.34c327.52,-1040.4 -117.39,-1642.87 -490.33,-2297.7 3.52,-13.86 6.48,-27.45 10.18,-41.38 133.49,-57.1 261.05,-119.28 372.99,-175.65 346.52,-174.52 847.48,-559.32 1105.19,-858.93 339.14,-394.28 532.63,-709.53 751.79,-1214.87 613.16,-1413.85 188.29,-3101.96 -601.01,-4052.39 -1028.46,-1238.4 -2083.7,-1524.44 -3675.31,-1524.4 -1745.49,0.02 -3494.54,10.86 -5239.56,-0.86 427.55,897.4 1491.58,1817.31 2598.12,2122.14 1794.36,591.11 3164.36,-187.35 4132.26,556.84 395.91,304.41 824.64,861.77 731.61,1618.13 -85.66,696.58 -434.15,1130.99 -905.77,1379.02 -559.27,294.1 -1477.84,196.52 -2158.44,196.52 -792.35,0 -1626.58,-25.07 -2413.57,3.1l1961.87 2364.93c48.59,56.79 68.79,70.15 117.13,131.85 537.85,686.76 2445.83,2962.68 3042.61,3669.1 -12.07,-398.45 76.63,-667.34 240.25,-989.94 120.5,-237.54 298.76,-500.36 419.99,-885.51z"/>
   <path class="fil3" d="M30483.42 12490.27c4.21,24.72 230.83,492 312.77,755.07 364.89,1171.44 -319.5,1904.33 -555.38,2531.77 -458.65,1219.99 688.46,2647.28 1851.41,2017.04 425.82,-230.77 784.61,-706.28 868.62,-1303.15 156.62,-1112.82 -676.83,-2218.12 -1329.31,-2959.34 -139.24,-158.18 -942.12,-963.16 -1148.11,-1041.39z"/>
  </g>
 </g>
</svg>
